<?xml version="1.0" standalone="no"?>
<!DOCTYPE svg PUBLIC "-//W3C//DTD SVG 20010904//EN"
 "http://www.w3.org/TR/2001/REC-SVG-20010904/DTD/svg10.dtd">
<svg version="1.0" xmlns="http://www.w3.org/2000/svg"
 width="550.000000pt" height="125.000000pt" viewBox="0 0 550.000000 125.000000"
 preserveAspectRatio="xMidYMid meet">

<g transform="translate(0.000000,125.000000) scale(0.100000,-0.100000)"
fill="#000000" stroke="none">
<path d="M4156 1218 c-9 -12 -16 -33 -16 -47 0 -22 2 -21 25 13 14 20 25 41
25 46 0 17 -18 11 -34 -12z"/>
<path d="M4333 1229 c-96 -13 -152 -65 -138 -129 9 -39 53 -75 145 -118 130
-61 160 -93 140 -147 -32 -85 -219 -68 -273 26 -12 21 -25 39 -29 39 -13 0 -9
-95 5 -112 18 -24 82 -38 177 -38 136 0 220 51 220 134 0 40 -53 90 -137 132
-116 56 -152 81 -159 109 -19 76 124 107 207 46 37 -28 39 -27 39 14 0 28 -4
35 -22 39 -49 10 -126 12 -175 5z"/>
<path d="M1112 1198 c-11 -18 -67 -117 -126 -220 -100 -173 -110 -188 -144
-199 -64 -20 -59 -29 15 -29 l72 0 33 60 33 60 135 0 135 0 27 -49 c40 -70 45
-72 140 -69 83 3 83 4 18 30 -18 6 -64 72 -160 228 -74 121 -140 220 -147 220
-6 0 -20 -15 -31 -32z m66 -192 c28 -46 52 -86 52 -90 0 -3 -48 -6 -106 -6
l-105 0 48 90 c26 50 50 90 53 90 3 0 29 -38 58 -84z"/>
<path d="M2335 1172 c-6 -4 -46 -68 -89 -142 -43 -74 -90 -145 -105 -157 l-26
-22 75 0 75 -1 -25 20 -25 19 21 38 c21 37 23 38 87 41 l64 3 26 -43 25 -43
-26 -15 c-26 -14 -23 -15 62 -18 49 -2 91 0 94 3 3 3 -3 12 -15 20 -11 8 -57
74 -103 147 -95 152 -101 160 -115 150z m8 -135 c11 -17 20 -34 20 -36 1 -2
-17 -4 -41 -5 -23 0 -42 2 -42 6 0 10 34 68 40 68 3 0 13 -15 23 -33z"/>
<path d="M1503 1151 c-70 -44 -49 -93 68 -156 57 -31 75 -46 77 -64 5 -32 -21
-51 -71 -51 -33 0 -46 7 -79 40 -22 22 -42 40 -45 40 -2 0 -3 -21 -1 -47 3
-44 5 -47 38 -56 60 -15 175 -5 207 19 70 52 50 105 -63 166 -38 20 -75 46
-82 57 -12 17 -11 21 12 36 30 20 73 13 111 -16 21 -18 26 -18 31 -5 3 8 4 23
2 33 -3 15 -15 18 -88 21 -70 2 -91 -1 -117 -17z"/>
<path d="M1853 1150 c-27 -16 -33 -26 -33 -53 0 -41 14 -54 105 -104 53 -29
71 -44 73 -63 5 -32 -21 -50 -71 -50 -34 0 -46 6 -78 40 -21 22 -41 40 -44 40
-12 0 -4 -78 10 -90 18 -15 130 -25 179 -16 49 9 96 51 96 85 0 35 -33 66
-118 111 -55 29 -67 39 -67 60 0 18 8 27 29 35 24 8 36 5 77 -18 l49 -27 0 35
0 35 -87 0 c-70 0 -95 -4 -120 -20z"/>
<path d="M2690 1163 c-27 -10 -60 -46 -60 -65 0 -37 21 -58 90 -93 38 -19 77
-46 86 -60 16 -24 15 -27 -1 -45 -35 -39 -124 -19 -159 36 -23 34 -36 20 -27
-31 7 -46 22 -53 121 -54 83 -1 146 25 156 65 13 50 -6 74 -91 121 -99 55
-109 67 -78 98 21 21 71 15 113 -15 l30 -21 0 35 0 36 -82 -1 c-46 0 -90 -3
-98 -6z"/>
<path d="M3030 1157 c-13 -7 -31 -24 -39 -39 -14 -25 -14 -29 5 -55 11 -15 52
-45 90 -66 37 -21 72 -43 76 -50 22 -35 -8 -67 -64 -67 -34 0 -47 7 -80 40
-22 22 -42 40 -45 40 -2 0 -3 -21 -1 -47 4 -56 13 -60 123 -62 81 -1 131 19
155 62 23 41 -1 73 -94 127 -93 54 -107 72 -72 95 30 20 73 13 111 -16 l25
-20 0 35 0 36 -82 0 c-46 0 -94 -6 -108 -13z"/>
<path d="M3338 1153 c21 -15 22 -22 22 -144 0 -119 -1 -128 -20 -134 -45 -14
-15 -25 70 -25 85 0 115 11 70 25 -19 6 -20 15 -20 134 0 122 1 129 23 144 21
15 16 16 -73 16 -89 0 -94 -1 -72 -16z"/>
<path d="M3583 1147 c27 -23 27 -24 27 -143 l0 -121 -27 -14 -28 -14 43 -3
c23 -2 61 -2 85 0 l42 3 -32 18 -33 18 0 99 0 100 161 -120 c91 -69 167 -120
177 -118 15 3 18 22 22 146 5 141 6 144 30 157 23 13 18 14 -59 15 -84 0 -91
-3 -49 -24 21 -11 23 -19 26 -105 2 -76 0 -92 -10 -84 -7 6 -73 56 -147 112
l-134 101 -61 0 -61 -1 28 -22z"/>
<path d="M1944 780 c-113 -26 -158 -118 -91 -185 38 -38 89 -55 168 -55 91 0
119 9 119 36 0 29 -1 29 -47 4 -46 -25 -87 -25 -133 -2 -64 32 -79 104 -32
152 43 42 91 48 152 18 l50 -25 0 27 c0 23 -5 29 -31 34 -40 8 -115 6 -155 -4z"/>
<path d="M2230 784 c0 -5 9 -15 20 -22 18 -11 20 -23 20 -101 0 -81 -2 -90
-22 -104 -22 -15 -19 -16 57 -16 76 0 79 1 58 16 -18 12 -23 25 -23 59 0 27 5
44 12 44 6 0 36 -27 67 -60 52 -55 60 -60 99 -60 44 0 56 14 22 25 -10 3 -37
28 -60 55 -39 47 -40 49 -21 60 26 13 43 44 35 63 -3 8 -17 20 -32 27 -32 15
-232 27 -232 14z m184 -40 c9 -8 16 -19 16 -24 0 -18 -33 -40 -61 -40 -27 0
-29 2 -29 40 0 38 2 40 29 40 16 0 37 -7 45 -16z"/>
<path d="M2630 781 c0 -5 7 -11 15 -15 12 -4 15 -25 15 -99 0 -87 -2 -96 -22
-110 -21 -15 -14 -16 112 -14 l135 2 3 28 c4 33 -17 36 -43 7 -15 -16 -29 -20
-64 -18 l-46 3 -3 48 -3 47 50 0 c27 0 53 -4 56 -10 13 -21 25 -8 25 27 0 34
-1 35 -18 20 -12 -11 -36 -17 -65 -17 l-47 0 0 40 0 40 48 0 c27 0 57 -7 70
-16 21 -15 22 -14 22 15 l0 31 -120 0 c-66 0 -120 -4 -120 -9z"/>
<path d="M2988 773 c20 -14 22 -23 22 -108 0 -85 -2 -94 -22 -108 -21 -15 -14
-16 112 -14 l135 2 3 28 c4 33 -17 36 -44 6 -14 -16 -28 -20 -64 -17 l-45 3
-3 48 -3 47 50 0 c27 0 53 -4 56 -10 13 -21 25 -8 25 27 0 34 -1 35 -18 20
-12 -11 -36 -17 -65 -17 l-47 0 0 40 0 40 48 0 c27 0 57 -7 70 -16 21 -15 22
-14 22 15 l0 31 -127 -1 c-119 0 -126 -1 -105 -16z"/>
<path d="M3310 783 c0 -6 9 -13 20 -16 18 -5 20 -14 20 -100 0 -87 -2 -96 -22
-110 -22 -15 -16 -16 83 -16 177 -1 259 40 259 128 0 44 -24 71 -85 97 -47 19
-275 33 -275 17z m241 -46 c29 -19 34 -30 37 -66 3 -34 -2 -49 -19 -67 -28
-30 -81 -47 -119 -39 l-30 7 0 94 0 94 49 0 c33 0 58 -7 82 -23z"/>
</g>
</svg>
