<?xml version="1.0" standalone="no"?>
<!DOCTYPE svg PUBLIC "-//W3C//DTD SVG 20010904//EN"
 "http://www.w3.org/TR/2001/REC-SVG-20010904/DTD/svg10.dtd">
<svg version="1.0" xmlns="http://www.w3.org/2000/svg"
 width="132.000000pt" height="30.000000pt" viewBox="0 0 132.000000 30.000000"
 preserveAspectRatio="xMidYMid meet">

<g transform="translate(0.000000,30.000000) scale(0.100000,-0.100000)"
fill="#000000" stroke="none">
<path d="M140 238 c-52 -17 -97 -32 -99 -34 -2 -2 8 -31 22 -66 18 -45 30 -63
43 -63 16 0 18 7 15 44 -3 51 13 49 23 -4 6 -32 10 -35 42 -35 l35 0 -7 53
c-8 59 6 57 21 -4 6 -22 13 -40 18 -40 4 1 20 1 35 1 29 0 29 0 21 47 -10 69
7 76 22 9 12 -57 16 -60 57 -50 20 6 22 12 22 75 0 77 11 67 -98 89 -67 13
-59 14 -172 -22z"/>
<path d="M490 215 c0 -44 3 -55 16 -55 9 0 18 9 21 20 3 11 14 20 23 20 10 0
22 -9 25 -20 3 -11 15 -20 26 -20 25 0 24 15 -1 33 -18 12 -18 15 -5 20 21 9
19 34 -4 47 -11 5 -38 10 -60 10 l-41 0 0 -55z m85 20 c0 -5 -10 -11 -22 -13
-16 -2 -23 2 -23 13 0 11 7 15 23 13 12 -2 22 -7 22 -13z"/>
<path d="M640 214 c0 -47 3 -55 18 -52 13 2 18 15 20 56 3 47 1 52 -17 52 -19
0 -21 -6 -21 -56z"/>
<path d="M722 254 c-47 -33 -13 -94 53 -94 17 0 41 7 53 16 47 33 13 94 -53
94 -17 0 -41 -7 -53 -16z m87 -22 c13 -25 -5 -52 -34 -52 -13 0 -28 8 -34 17
-13 25 5 53 34 53 13 0 29 -8 34 -18z"/>
<path d="M860 260 c0 -5 10 -10 23 -10 20 0 22 -4 19 -45 -3 -36 -1 -45 12
-45 12 0 16 10 16 45 0 38 3 45 20 45 11 0 20 5 20 10 0 6 -25 10 -55 10 -30
0 -55 -4 -55 -10z"/>
<path d="M495 116 c-30 -45 22 -94 83 -80 62 15 73 55 15 53 -21 -1 -30 -3
-20 -6 22 -6 17 -27 -7 -31 -22 -5 -46 16 -46 40 0 22 38 39 62 27 9 -5 25 -9
35 -9 17 1 17 2 -1 15 -11 8 -39 15 -63 15 -34 0 -46 -5 -58 -24z"/>
<path d="M662 95 c-27 -56 -27 -65 -2 -58 11 3 20 9 20 14 0 12 57 11 65 -1 3
-6 14 -10 25 -10 16 0 15 4 -9 50 -21 40 -31 50 -52 50 -20 0 -29 -9 -47 -45z
m68 -7 c0 -5 -9 -8 -20 -8 -18 0 -19 3 -9 21 9 17 13 19 20 8 5 -8 9 -17 9
-21z"/>
<path d="M810 85 c0 -68 23 -72 30 -5 l5 45 21 -46 c12 -26 28 -46 37 -46 8 0
24 19 34 41 l18 41 5 -40 c3 -27 10 -40 20 -40 11 0 16 14 18 53 l3 52 -34 0
c-30 0 -36 -4 -49 -37 l-15 -38 -17 38 c-14 31 -21 37 -46 37 -30 0 -30 -1
-30 -55z"/>
<path d="M1022 89 l3 -51 53 -2 c28 0 52 2 52 7 0 4 -16 7 -35 7 -24 0 -35 5
-35 15 0 10 10 15 30 15 17 0 30 5 30 10 0 6 -13 10 -30 10 -16 0 -30 5 -30
10 0 6 16 10 35 10 19 0 35 5 35 10 0 6 -25 10 -56 10 l-55 0 3 -51z"/>
<path d="M1160 125 c-17 -21 -4 -34 41 -41 23 -4 38 -11 36 -18 -4 -12 -28
-12 -66 0 -18 5 -23 4 -19 -6 10 -31 111 -34 122 -3 9 22 -1 32 -39 39 -20 3
-37 10 -40 14 -10 16 17 22 41 9 25 -13 41 -8 29 10 -10 16 -91 13 -105 -4z"/>
<path d="M328 73 c-38 -2 -68 -8 -68 -12 0 -5 24 -11 53 -15 85 -10 97 -8 97
14 0 11 -3 19 -7 18 -5 -1 -38 -3 -75 -5z"/>
</g>
</svg>
